<svg width="480" height="320" viewBox="0 0 480 320" fill="none" xmlns="http://www.w3.org/2000/svg">
  <rect x="0" y="0" width="480" height="320" rx="28" fill="#FDF4FF"/>
  <rect x="40" y="40" width="400" height="240" rx="24" fill="#FEF9C3"/>
  <rect x="120" y="90" width="160" height="150" rx="24" fill="#38BDF8" stroke="#0F172A" stroke-width="6"/>
  <circle cx="170" cy="145" r="18" fill="#FFFFFF" stroke="#0F172A" stroke-width="6"/>
  <circle cx="230" cy="145" r="18" fill="#FFFFFF" stroke="#0F172A" stroke-width="6"/>
  <circle cx="170" cy="145" r="7" fill="#0F172A"/>
  <circle cx="230" cy="145" r="7" fill="#0F172A"/>
  <rect x="170" y="180" width="60" height="22" rx="11" fill="#FCD34D" stroke="#0F172A" stroke-width="6"/>
  <rect x="105" y="210" width="80" height="45" rx="16" fill="#FB7185" stroke="#0F172A" stroke-width="6"/>
  <rect x="215" y="210" width="80" height="45" rx="16" fill="#FB7185" stroke="#0F172A" stroke-width="6"/>
  <rect x="290" y="60" width="120" height="80" rx="14" fill="#FFFFFF" stroke="#0F172A" stroke-width="6"/>
  <text x="305" y="108" font-family="Comic Neue, Arial, sans-serif" font-size="28" font-weight="700" fill="#0F172A">WIP</text>
  <line x1="280" y1="95" x2="290" y2="90" stroke="#0F172A" stroke-width="6" stroke-linecap="round"/>
  <line x1="280" y1="110" x2="290" y2="112" stroke="#0F172A" stroke-width="6" stroke-linecap="round"/>
  <circle cx="140" cy="70" r="10" fill="#FCD34D" stroke="#0F172A" stroke-width="4"/>
  <rect x="135" y="50" width="10" height="20" fill="#0F172A"/>
  <circle cx="260" cy="70" r="10" fill="#FCD34D" stroke="#0F172A" stroke-width="4"/>
  <rect x="255" y="50" width="10" height="20" fill="#0F172A"/>
</svg>
